<?xml version="1.0" standalone="no"?>
<!DOCTYPE svg PUBLIC "-//W3C//DTD SVG 20010904//EN"
 "http://www.w3.org/TR/2001/REC-SVG-20010904/DTD/svg10.dtd">
<svg version="1.0" xmlns="http://www.w3.org/2000/svg"
 width="954.000000pt" height="954.000000pt" viewBox="0 0 954.000000 954.000000"
 preserveAspectRatio="xMidYMid meet">
<metadata>
Created by potrace 1.14, written by Peter Selinger 2001-2017
</metadata>
<g transform="translate(0.000000,954.000000) scale(0.100000,-0.100000)"
fill="#000000" stroke="none">
<path d="M5244 9511 c-107 -36 -306 -211 -458 -401 -37 -47 -73 -92 -79 -100
-32 -39 -149 -215 -201 -300 -31 -52 -61 -102 -66 -110 -14 -21 -175 -347
-194 -392 -28 -63 -106 -269 -110 -287 -2 -9 -6 -23 -9 -31 -9 -25 -30 -95
-28 -95 1 0 -7 -26 -18 -58 -11 -32 -20 -62 -20 -65 1 -4 0 -10 -1 -14 -5 -15
-8 -28 -9 -43 -2 -25 -13 -18 -87 53 -39 37 -85 78 -103 92 -18 14 -45 35 -59
48 -43 37 -251 175 -327 217 -235 131 -495 230 -680 260 -137 22 -308 24 -332
5 -2 -2 -6 -3 -10 -4 -74 -16 -140 -110 -169 -237 -2 -11 -6 -28 -9 -39 -15
-61 -26 -125 -31 -190 -2 -25 -4 -45 -4 -45 -12 0 -17 -445 -7 -585 4 -52 9
-118 11 -145 2 -28 7 -68 10 -89 3 -20 8 -58 11 -84 3 -26 8 -54 10 -62 2 -8
7 -37 11 -65 3 -27 8 -53 10 -56 2 -4 6 -24 9 -45 4 -22 11 -53 16 -70 5 -18
9 -36 8 -40 -1 -5 0 -12 1 -16 1 -5 4 -12 5 -18 1 -5 3 -11 5 -12 2 -3 6 -18
14 -57 12 -54 59 -208 82 -270 14 -36 25 -68 26 -71 0 -3 5 -16 11 -30 6 -14
11 -27 12 -30 15 -44 44 -107 96 -213 27 -53 49 -103 49 -110 0 -7 -8 -22 -18
-33 -9 -10 -35 -41 -57 -69 -22 -27 -44 -55 -50 -61 -5 -6 -19 -23 -30 -39
-11 -15 -29 -39 -41 -54 -28 -35 -184 -268 -184 -275 0 -3 -16 -30 -35 -60
-19 -30 -35 -59 -35 -65 0 -5 -4 -11 -8 -13 -14 -6 -238 -472 -246 -513 -2 -5
-9 -26 -18 -45 -12 -29 -39 -101 -43 -120 -1 -3 -5 -12 -8 -20 -14 -33 -68
-207 -102 -330 -3 -8 -18 -71 -35 -140 -32 -134 -35 -149 -54 -250 -3 -19 -8
-44 -10 -55 -2 -11 -7 -40 -10 -65 -3 -25 -8 -56 -11 -69 -5 -26 -13 -91 -21
-166 -3 -27 -7 -66 -10 -85 -26 -224 -26 -762 0 -985 16 -138 22 -186 26 -195
1 -3 3 -14 5 -25 1 -11 6 -41 9 -67 4 -25 21 -97 37 -160 16 -62 31 -124 34
-137 3 -13 10 -32 16 -43 5 -10 7 -18 3 -18 -3 0 -1 -7 6 -15 7 -8 9 -15 5
-15 -4 0 -2 -7 5 -15 7 -8 10 -15 7 -15 -10 0 75 -196 134 -308 58 -112 122
-218 143 -237 6 -5 25 -30 41 -55 35 -51 236 -258 310 -317 72 -58 229 -161
303 -199 35 -18 69 -37 75 -42 7 -6 14 -10 17 -10 3 1 27 -9 53 -21 27 -12 81
-35 120 -50 40 -16 81 -32 92 -36 11 -4 25 -9 30 -11 6 -1 39 -12 75 -24 36
-12 74 -23 85 -25 11 -2 54 -13 95 -24 41 -11 92 -22 114 -25 21 -4 41 -8 45
-10 3 -2 22 -7 41 -10 19 -3 44 -7 55 -10 11 -2 40 -7 65 -10 25 -3 56 -8 70
-11 26 -4 88 -12 175 -21 201 -22 361 -29 695 -28 345 0 506 6 705 29 101 12
109 13 155 19 25 4 59 9 75 11 17 2 40 6 51 9 12 2 37 7 55 10 65 11 116 22
199 41 126 30 356 105 445 145 28 13 56 24 62 26 50 10 342 184 441 263 46 37
261 248 301 296 56 68 176 256 221 345 41 82 49 100 85 183 63 145 136 420
165 622 6 39 12 81 15 95 3 24 13 114 21 190 3 29 16 354 16 385 0 6 -3 87 -7
180 -6 174 -8 216 -20 320 -3 33 -8 78 -10 100 -8 78 -16 141 -25 190 -5 28
-12 66 -14 85 -10 63 -18 103 -33 170 -2 8 -6 26 -8 40 -7 38 -11 56 -40 170
-15 58 -28 112 -30 120 -2 8 -8 29 -15 45 -6 17 -11 31 -10 33 2 5 -53 177
-60 187 -5 6 -9 13 -9 18 -1 4 -1 8 -2 10 0 1 -2 13 -5 26 -2 14 -8 29 -13 35
-5 6 -14 29 -21 51 -6 22 -21 60 -32 85 -11 24 -24 56 -30 70 -22 60 -49 116
-136 290 -52 102 -98 187 -103 188 -17 7 -9 23 34 66 90 94 116 124 184 211
130 169 254 367 351 560 68 137 132 278 153 340 7 22 16 45 20 50 4 6 26 66
49 135 23 69 44 132 47 140 7 18 6 13 32 113 11 43 22 81 25 85 2 4 7 27 11
52 4 25 8 48 11 51 2 4 7 24 10 45 8 47 12 69 14 69 1 0 3 16 5 35 2 19 6 49
10 65 14 71 20 262 10 340 -3 22 -17 63 -32 91 -21 41 -38 57 -78 77 -76 39
-135 56 -239 71 -86 12 -337 13 -426 3 -172 -21 -207 -28 -430 -82 -8 -2 -28
-9 -45 -14 -16 -6 -77 -27 -135 -47 -112 -39 -380 -165 -443 -208 -21 -14 -42
-26 -47 -26 -5 0 -9 60 -10 133 0 72 -3 159 -5 192 -10 133 -16 201 -20 230
-3 17 -7 48 -10 70 -7 59 -14 104 -25 155 -11 49 -18 89 -26 135 -14 81 -64
261 -112 405 -19 58 -35 111 -35 118 0 6 -4 12 -9 12 -4 0 -8 6 -8 14 0 36
-172 408 -206 447 -8 8 -14 19 -14 23 0 4 -18 33 -39 64 -86 127 -167 202
-231 215 -14 3 -48 -3 -76 -12z"/>
</g>
</svg>
